<?xml version="1.0" encoding="UTF-8"?>
<svg width="405px" height="400px" viewBox="0 0 405 400" version="1.1" xmlns="http://www.w3.org/2000/svg" xmlns:xlink="http://www.w3.org/1999/xlink">
    <!-- Generator: Sketch 43.1 (39012) - http://www.bohemiancoding.com/sketch -->
    <title>Slice</title>
    <desc>Created with Sketch.</desc>
    <defs>
        <linearGradient x1="0%" y1="4.65255946%" x2="64.650451%" y2="62.5108364%" id="linearGradient-1">
            <stop stop-color="#FFFFFF" stop-opacity="0.2" offset="0%"></stop>
            <stop stop-color="#FFFFFF" stop-opacity="0" offset="100%"></stop>
        </linearGradient>
        <path d="M1.39971463,68.6152657 L0.381740353,68.9964617 L52.2984283,208.514169 C56.624819,220.204177 69.3494974,226.303312 80.6744612,222.110156 L97.9800239,215.756891 L102.688155,228.463422 L116.049067,264.422904 C120.375458,276.112912 133.100136,282.212047 144.4251,278.018892 C155.750064,273.825736 161.348922,260.99214 157.022532,249.302132 L143.661619,213.34265 L138.953488,200.63612 L166.947781,190.216764 L171.655912,202.923295 L185.016824,238.882777 C189.343215,250.572785 202.067893,256.67192 213.392857,252.478765 C224.717821,248.28561 230.316679,235.452014 225.990289,223.762005 L212.50213,187.675458 L207.793999,174.968928 L225.099561,168.615662 C236.297278,164.422507 242.023384,151.461846 237.696993,139.898903 L185.780305,0.381195921 L185.398565,0.508261228 L1.39971463,68.6152657 L1.39971463,68.6152657 Z" id="path-2"></path>
        <linearGradient x1="60.8473761%" y1="-6.51446015%" x2="41.7166746%" y2="117.889887%" id="linearGradient-4">
            <stop stop-color="#000000" stop-opacity="0.5" offset="0%"></stop>
            <stop stop-color="#000000" stop-opacity="0" offset="100%"></stop>
        </linearGradient>
        <linearGradient x1="44.1106833%" y1="146.559136%" x2="56.000974%" y2="52.3813953%" id="linearGradient-5">
            <stop stop-color="#0095D5" offset="9.677%"></stop>
            <stop stop-color="#238AD9" offset="30.07%"></stop>
            <stop stop-color="#557BDE" offset="62.11%"></stop>
            <stop stop-color="#7472E2" offset="86.43%"></stop>
            <stop stop-color="#806EE3" offset="100%"></stop>
        </linearGradient>
        <linearGradient x1="13.9840532%" y1="38.9391066%" x2="68.682392%" y2="-4.5140073%" id="linearGradient-6">
            <stop stop-color="#0095D5" offset="11.83%"></stop>
            <stop stop-color="#3C83DC" offset="41.78%"></stop>
            <stop stop-color="#6D74E1" offset="69.62%"></stop>
            <stop stop-color="#806EE3" offset="83.33%"></stop>
        </linearGradient>
        <linearGradient x1="-16.8361667%" y1="91.9396667%" x2="76.2191667%" y2="-1.11566667%" id="linearGradient-7">
            <stop stop-color="#C757BC" offset="10.75%"></stop>
            <stop stop-color="#D0609A" offset="21.38%"></stop>
            <stop stop-color="#E1725C" offset="42.54%"></stop>
            <stop stop-color="#EE7E2F" offset="60.48%"></stop>
            <stop stop-color="#F58613" offset="74.3%"></stop>
            <stop stop-color="#F88909" offset="82.32%"></stop>
        </linearGradient>
        <path d="M146.858743,23.0590098 C147.02044,35.6922024 136.58628,46.0735816 123.495441,46.2103298 L83.3829443,46.5831317 L64.4859527,46.7152841 L24.3734557,47.0880861 C11.2826175,47.2248342 0.628982451,37.0474281 0.430423341,24.2854852 C0.268726219,11.6522927 10.7028868,1.27091345 23.793725,1.13416534 L63.906222,0.761363362 L82.8032137,0.629211007 L122.915711,0.256409032 C136.171121,0.211734887 146.824756,10.3891409 146.858743,23.0590098" id="path-8"></path>
        <linearGradient x1="23.2161796%" y1="0%" x2="83.2568449%" y2="74.0235959%" id="linearGradient-10">
            <stop stop-color="#FFFFFF" stop-opacity="0.2" offset="0%"></stop>
            <stop stop-color="#FFFFFF" stop-opacity="0" offset="100%"></stop>
        </linearGradient>
    </defs>
    <g id="Page-1" stroke="none" stroke-width="1" fill="none" fill-rule="evenodd">
        <g id="kotlin-android">
            <g id="Group" transform="translate(139.000000, 148.000000)">
                <g id="Rectangle-3" transform="translate(1.000000, 0.000000)" fill-rule="nonzero">
                    <g id="Mask" transform="translate(125.336178, 123.000000) scale(-1, 1) translate(-125.336178, -123.000000) translate(0.336178, 0.000000)" fill="#94C654">
                        <path d="M249.607789,246 C249.381199,244.987667 249.082664,243.979211 248.709236,242.981168 L196.792548,103.463461 L196.410807,103.590526 L12.4119575,171.69753 L12.4119575,171.69753 L11.3939832,172.078726 L38.9012279,246 L249.607789,246 Z M193.738625,96.0936728 L189.921221,85.9284483 C188.648754,83.1330115 187.121792,80.4646401 185.467584,77.7962686 C171.215944,54.9245134 146.657315,40.0578725 119.044763,36.3729786 L123.11666,4.22545592 C123.371153,2.19241101 121.971439,0.413496713 120.062737,0.0323007926 C118.154035,-0.221829821 116.37258,1.04882325 116.118087,2.95480285 L116.118087,3.08186816 L111.918943,35.737652 C82.0159485,33.9587377 52.7491881,44.8863541 31.2444816,65.7250645 L6.6858522,43.6157011 C5.28613758,42.345048 3.12294224,42.345048 1.72322762,43.7427664 L1.59598083,43.8698317 C0.323512991,45.3946154 0.450759775,47.6817909 1.97772119,49.0795093 L26.4091038,70.8076767 C8.84904753,90.6298646 -0.0582273617,116.424122 2.99569546,141.964249 C3.75917617,148.69871 5.41338436,155.306106 7.70382648,161.659371 C8.08556683,162.675894 8.46730718,163.565351 8.84904753,164.581873 L193.738625,96.0936728 L193.738625,96.0936728 Z M124.134634,62.9296277 C129.097259,60.8965828 134.696117,63.3108236 136.732066,68.1393053 C138.768014,72.967787 136.350325,78.6857258 131.514948,80.7187707 C126.67957,82.7518156 120.953464,80.3375748 118.917516,75.5090931 C118.917516,75.3820278 118.790269,75.2549625 118.790269,75.2549625 C116.881567,70.2994155 119.299256,64.708542 124.134634,62.9296277 Z M39.8972629,94.1876932 C44.8598875,92.1546483 50.458746,94.5688891 52.4946945,99.3973708 C54.5306431,104.225852 52.1129542,109.943791 47.2775764,111.976836 C42.3149518,114.009881 36.7160933,111.59564 34.6801447,106.767159 C34.6801447,106.640093 34.5528979,106.513028 34.5528979,106.513028 C32.6441962,101.557481 34.9346383,96.0936728 39.8972629,94.1876932 Z" id="path-1"></path>
                    </g>
                    <g id="Clipped" fill="url(#linearGradient-1)" opacity="0.708050272">
                        <rect id="Rectangle-path" style="mix-blend-mode: darken;" x="44.8717949" y="-3.2005571" width="207.264957" height="217.637883"></rect>
                    </g>
                </g>
                <g id="Clipped" transform="translate(120.428046, 242.922899) scale(-1, 1) translate(-120.428046, -242.922899) translate(0.428046, 102.922899)">
                    <g id="Combined-Shape-Clipped">
                        <mask id="mask-3" fill="white">
                            <use xlink:href="#path-2"></use>
                        </mask>
                        <g id="path-4"></g>
                        <polygon id="Combined-Shape" fill-opacity="0.629999995" fill="url(#linearGradient-4)" fill-rule="nonzero" mask="url(#mask-3)" points="236.348803 143.961503 177.158815 -1.03849749 62.842576 36.3013354 -87.7984496 179.259553 16.1374478 179.749888 16.1374478 143.961503"></polygon>
                    </g>
                </g>
            </g>
            <g id="logo-(1)" fill-rule="nonzero">
                <polygon id="XMLID_2_" fill="url(#linearGradient-5)" points="0 400 200.666667 199.333333 400 400"></polygon>
                <polygon id="Shape" fill="url(#linearGradient-6)" points="0 0 200.666667 0 0 216.666667"></polygon>
                <polygon id="Shape" fill="url(#linearGradient-7)" points="200.666667 0 0 211.333333 0 400 200.666667 199.333333 400 0"></polygon>
            </g>
            <g id="Rectangle-3" transform="translate(330.706638, 356.640487) rotate(0.500000) translate(-330.706638, -356.640487) translate(257.206638, 332.640487)">
                <g id="Mask">
                    <g id="path-10-link" fill-rule="nonzero" fill="#000000">
                        <path d="M146.858743,23.0590098 C147.02044,35.6922024 136.58628,46.0735816 123.495441,46.2103298 L83.3829443,46.5831317 L64.4859527,46.7152841 L24.3734557,47.0880861 C11.2826175,47.2248342 0.628982451,37.0474281 0.430423341,24.2854852 C0.268726219,11.6522927 10.7028868,1.27091345 23.793725,1.13416534 L63.906222,0.761363362 L82.8032137,0.629211007 L122.915711,0.256409032 C136.171121,0.211734887 146.824756,10.3891409 146.858743,23.0590098" id="path-10"></path>
                    </g>
                    <g id="path-10-link" fill="#93C653">
                        <path d="M146.858743,23.0590098 C147.02044,35.6922024 136.58628,46.0735816 123.495441,46.2103298 L83.3829443,46.5831317 L64.4859527,46.7152841 L24.3734557,47.0880861 C11.2826175,47.2248342 0.628982451,37.0474281 0.430423341,24.2854852 C0.268726219,11.6522927 10.7028868,1.27091345 23.793725,1.13416534 L63.906222,0.761363362 L82.8032137,0.629211007 L122.915711,0.256409032 C136.171121,0.211734887 146.824756,10.3891409 146.858743,23.0590098" id="path-10"></path>
                    </g>
                </g>
                <g id="Clipped">
                    <mask id="mask-9" fill="white">
                        <use xlink:href="#path-8"></use>
                    </mask>
                    <g id="path-10"></g>
                    <rect id="Rectangle-path" fill="url(#linearGradient-10)" fill-rule="nonzero" opacity="0.96631567" mask="url(#mask-9)" x="-12.9251288" y="-36.826509" width="157.197651" height="138.397183"></rect>
                </g>
            </g>
            <path d="M258.877695,210.929628 C263.84032,208.896583 269.439178,211.310824 271.475127,216.139305 C273.511076,220.967787 271.093387,226.685726 266.258009,228.718771 C261.422631,230.751816 255.696526,228.337575 253.660577,223.509093 C253.660577,223.382028 253.53333,223.254962 253.53333,223.254962 C251.624629,218.299416 254.042318,212.708542 258.877695,210.929628 Z" id="Path" fill="#FFFFFF" fill-rule="nonzero"></path>
            <path d="M343.147325,242.187693 C348.10995,240.154648 353.708808,242.568889 355.744757,247.397371 C357.780705,252.225852 355.363016,257.943791 350.527638,259.976836 C345.565014,262.009881 339.966155,259.59564 337.930207,254.767159 C337.930207,254.640093 337.80296,254.513028 337.80296,254.513028 C335.894258,249.557481 338.1847,244.093673 343.147325,242.187693 Z" id="Path" fill="#FFFFFF" fill-rule="nonzero"></path>
        </g>
    </g>
</svg>